<?xml version="1.0" encoding="utf-8"?>
<!-- Generator: Adobe Illustrator 23.0.1, SVG Export Plug-In . SVG Version: 6.00 Build 0)  -->
<svg version="1.1" xmlns="http://www.w3.org/2000/svg" xmlns:xlink="http://www.w3.org/1999/xlink" x="0px" y="0px"
	 viewBox="0 0 877.84198 194" enable-background="new 0 0 877.84198 194" xml:space="preserve">
<g id="Layer_1">
</g>
<g id="Isolation_Mode">
	<path d="M0.0000969,98.2982712c0-52.9692688,22.8494835-92.1769104,79.1942291-92.1769104
		c51.1516953,0,73.2222061,27.7828941,73.2222061,68.0291519v3.3754883h-41.5445175v-5.4527054
		c0-22.0705338-8.8282089-34.0145836-31.4180374-34.0145836c-24.667057,0-36.3514481,15.0598793-36.3514481,55.5657997v11.424736
		c0,42.5831375,11.1650887,56.604393,36.6110992,56.604393c21.0319138,0,32.7163162-9.0878448,32.7163162-33.2355957v-7.529953
		h39.9865875v5.4527206c0,39.9865952-21.0319214,67.2501907-71.9239426,67.2501907
		c-61.7974625,0-80.4924927-39.9866028-80.4924927-91.1382828V98.2982712z M253.4216309,135.6883392v-2.5965424h-23.888092
		c-15.0598755,0-21.2915649,7.2702942-21.2915649,16.8774719v1.5579071c0,10.9054413,6.491333,16.358139,17.1371155,16.358139
		C242.256546,167.8853149,253.4216309,156.4605865,253.4216309,135.6883392z M233.4283295,50.7817268
		c42.5831451,0,56.8640594,23.3687859,56.8640594,47.7761955v91.6575775h-35.8321533V171.520462h-1.0386047
		c-6.2316895,12.2037201-18.9546661,21.5512238-37.3900604,21.5512238c-25.1863556,0-45.179657-15.0598755-45.179657-39.4672852
		c0-24.926712,13.5019684-45.4393082,55.5657959-45.4393082h27.0039215v-7.7896042
		c0-13.7616119-3.3754883-22.8494873-20.7722626-22.8494873c-15.5791779,0-21.8108521,7.2702942-21.8108521,22.3301849v1.03862
		h-34.274231v-4.1544647C176.5642853,73.8908615,191.1048584,50.7817268,233.4283295,50.7817268z M400.9046631,51.8203125
		c-23.8881226,0-37.1304321,11.6843872-43.102478,28.3021851h-0.7789307V54.4168701h-36.8707275v135.798645h36.8707275v-81.0118408
		c0-13.5019531,8.5686035-27.2635498,28.3021851-27.2635498c17.3967896,0,22.5898438,7.0106201,22.5898438,23.628418v84.6469727
		h36.8707886V96.7403564C444.7860718,68.1784668,432.5823364,51.8203125,400.9046631,51.8203125z M559.812439,170.7415161
		c-5.9720459,12.2037048-18.6950073,22.0705109-37.3900757,22.0705109c-42.0638428,0-55.5657959-36.611084-55.5657959-68.2887955
		v-2.5965271c0-41.2848587,20.5126038-70.3660126,55.5657959-70.3660126c21.0319214,0,30.8987427,8.0492554,37.3900757,16.8774567
		V4.5634623h36.8707275v185.6520386H559.812439V170.7415161z M560.0720825,141.9200134v-41.0252075
		c-2.0772095-11.6844025-10.9054565-21.0319214-26.7442627-21.0319214c-22.3301697,0-29.8601379,13.7616272-29.8601379,40.7655563
		v3.3754959c0,25.965332,5.9720459,40.5059052,28.3022156,40.5059052
		C548.1280518,164.5098419,557.2159424,155.9412842,560.0720825,141.9200134z M626.2836914,20.6619396
		c0-11.1650829,9.0878296-20.2529373,19.9932861-20.2529373c10.9053955,0,19.9932251,9.0878544,19.9932251,20.2529373
		c0,11.1651154-9.0878296,20.2529697-19.9932251,20.2529697C635.371521,40.9149094,626.2836914,31.827055,626.2836914,20.6619396z
		 M627.8415527,54.4168892h36.8707886v135.7986145h-36.8707886V54.4168892z M781.0369873,170.7415161
		c-5.9720459,12.2037048-18.6950684,22.0705109-37.3900757,22.0705109c-42.0638428,0-55.5657959-36.611084-55.5657959-68.2887955
		v-2.5965271c0-41.2848587,20.5126343-70.3660126,55.5657959-70.3660126c21.0319214,0,30.8986816,8.0492554,37.3900757,16.8774567
		V4.5634623h36.8707275v185.6520386h-36.8707275V170.7415161z M781.2966309,141.9200134v-41.0252075
		c-2.0772095-11.6844025-10.9054565-21.0319214-26.7442627-21.0319214c-22.3302002,0-29.8601685,13.7616272-29.8601685,40.7655563
		v3.3754959c0,25.965332,5.9720459,40.5059052,28.3022461,40.5059052
		C769.3525391,164.5098419,778.4404297,155.9412842,781.2966309,141.9200134z M857.8486328,193.5910034
		c10.9054565,0,19.9932861-9.0878601,19.9932861-20.2529755c0-11.1650848-9.0878296-20.2529297-19.9932861-20.2529297
		s-19.9932861,9.0878448-19.9932861,20.2529297C837.8553467,184.5031433,846.9431763,193.5910034,857.8486328,193.5910034z"/>
</g>
</svg>
